<svg width="16" height="18" viewBox="0 0 16 18" fill="none" xmlns="http://www.w3.org/2000/svg">
<path fill-rule="evenodd" clip-rule="evenodd" d="M10.9403 16.9419C11.0575 16.8247 11.1233 16.6658 11.1233 16.5C11.1233 16.3342 11.0575 16.1753 10.9403 16.0581C10.823 15.9408 10.6641 15.875 10.4983 15.875H5.49831C5.33255 15.875 5.17358 15.9408 5.05637 16.0581C4.93916 16.1753 4.87331 16.3342 4.87331 16.5C4.87331 16.6658 4.93916 16.8247 5.05637 16.9419C5.17358 17.0592 5.33255 17.125 5.49831 17.125H10.4983C10.6641 17.125 10.823 17.0592 10.9403 16.9419ZM14.8743 14.4595C15.0645 14.3497 15.2219 14.191 15.3303 14H15.3296C15.4406 13.8095 15.499 13.5929 15.4986 13.3723C15.4982 13.1518 15.439 12.9354 15.3272 12.7453C14.8936 11.9984 14.2483 9.88516 14.2483 7.125C14.2483 5.4674 13.5898 3.87769 12.4177 2.70558C11.2456 1.53348 9.65592 0.875 7.99831 0.875C6.34071 0.875 4.751 1.53348 3.5789 2.70558C2.40679 3.87769 1.74831 5.4674 1.74831 7.125C1.74831 9.88594 1.10378 11.9984 0.670189 12.7453C0.559496 12.9351 0.500797 13.1508 0.500008 13.3705C0.499219 13.5903 0.556369 13.8063 0.665696 13.9969C0.775023 14.1875 0.932665 14.346 1.12273 14.4562C1.3128 14.5665 1.52858 14.6247 1.74831 14.625H14.2483C14.468 14.6265 14.684 14.5694 14.8743 14.4595Z" fill="#606060"/>
</svg>
