<svg width="16" height="16" viewBox="0 0 16 16" fill="none" xmlns="http://www.w3.org/2000/svg">
<ellipse cx="8.00521" cy="8.0026" rx="6.66667" ry="6.66667" transform="rotate(90 8.00521 8.0026)" fill="#ACACAC"/>
<path d="M10.854 6.14664C10.9005 6.19308 10.9374 6.24822 10.9626 6.30892C10.9877 6.36962 11.0007 6.43469 11.0007 6.50039C11.0007 6.5661 10.9877 6.63116 10.9626 6.69186C10.9374 6.75256 10.9005 6.80771 10.854 6.85414L7.35403 10.3541C7.30759 10.4006 7.25245 10.4375 7.19175 10.4627C7.13105 10.4878 7.06599 10.5008 7.00028 10.5008C6.93457 10.5008 6.86951 10.4878 6.80881 10.4627C6.74811 10.4375 6.69296 10.4006 6.64653 10.3541L5.14653 8.85414C5.05271 8.76032 5 8.63308 5 8.50039C5 8.36771 5.05271 8.24046 5.14653 8.14664C5.24035 8.05282 5.3676 8.00012 5.50028 8.00012C5.63296 8.00012 5.76021 8.05282 5.85403 8.14664L7.00028 9.29352L10.1465 6.14664C10.193 6.10015 10.2481 6.06328 10.3088 6.03811C10.3695 6.01295 10.4346 6 10.5003 6C10.566 6 10.631 6.01295 10.6917 6.03811C10.7524 6.06328 10.8076 6.10015 10.854 6.14664Z" fill="#0F0F0F"/>
</svg>
