<svg width="2" height="14" viewBox="0 0 2 14" fill="none" xmlns="http://www.w3.org/2000/svg">
<path d="M1.9375 7C1.9375 7.18542 1.88252 7.36668 1.7795 7.52085C1.67649 7.67502 1.53007 7.79518 1.35877 7.86614C1.18746 7.93709 0.99896 7.95566 0.817103 7.91949C0.635246 7.88331 0.4682 7.79402 0.337088 7.66291C0.205976 7.5318 0.116688 7.36475 0.0805142 7.1829C0.0443406 7.00104 0.0629062 6.81254 0.133863 6.64123C0.204821 6.46993 0.324983 6.32351 0.479154 6.2205C0.633325 6.11748 0.814581 6.0625 1 6.0625C1.24864 6.0625 1.4871 6.16127 1.66291 6.33709C1.83873 6.5129 1.9375 6.75136 1.9375 7ZM1 2.625C1.18542 2.625 1.36668 2.57002 1.52085 2.467C1.67502 2.36399 1.79518 2.21757 1.86614 2.04627C1.93709 1.87496 1.95566 1.68646 1.91949 1.5046C1.88331 1.32275 1.79402 1.1557 1.66291 1.02459C1.5318 0.893476 1.36475 0.804188 1.1829 0.768014C1.00104 0.731841 0.812541 0.750406 0.641235 0.821363C0.469929 0.892321 0.323511 1.01248 0.220498 1.16665C0.117484 1.32082 0.0625005 1.50208 0.0625005 1.6875C0.0625005 1.93614 0.161272 2.1746 0.337088 2.35041C0.512903 2.52623 0.75136 2.625 1 2.625ZM1 11.375C0.814581 11.375 0.633325 11.43 0.479154 11.533C0.324983 11.636 0.204821 11.7824 0.133863 11.9537C0.0629062 12.125 0.0443406 12.3135 0.0805142 12.4954C0.116688 12.6773 0.205976 12.8443 0.337088 12.9754C0.4682 13.1065 0.635246 13.1958 0.817103 13.232C0.99896 13.2682 1.18746 13.2496 1.35877 13.1786C1.53007 13.1077 1.67649 12.9875 1.7795 12.8333C1.88252 12.6792 1.9375 12.4979 1.9375 12.3125C1.9375 12.0639 1.83873 11.8254 1.66291 11.6496C1.4871 11.4738 1.24864 11.375 1 11.375Z" fill="#D6D6D6"/>
</svg>
