<svg width="16" height="16" viewBox="0 0 16 16" fill="none" xmlns="http://www.w3.org/2000/svg">
<path d="M14.7736 8.70884C14.6774 8.61243 14.5568 8.54404 14.4246 8.51101C14.2925 8.47797 14.1539 8.48154 14.0236 8.52134C13.1137 8.79603 12.1463 8.81877 11.2245 8.58711C10.3026 8.35546 9.46091 7.8781 8.78894 7.20588C8.11698 6.53365 7.63994 5.69175 7.40864 4.76983C7.17734 3.84792 7.20044 2.88053 7.47548 1.97071C7.51561 1.8404 7.51945 1.70162 7.4866 1.56929C7.45374 1.43695 7.38544 1.31608 7.28902 1.21967C7.19261 1.12326 7.07174 1.05495 6.93941 1.0221C6.80708 0.989244 6.66829 0.993086 6.53798 1.03321C5.16948 1.45383 3.96854 2.29543 3.10611 3.43821C2.35192 4.44064 1.892 5.63341 1.77796 6.88268C1.66391 8.13194 1.90025 9.38827 2.46046 10.5107C3.02066 11.6331 3.88257 12.5772 4.94946 13.2371C6.01636 13.8969 7.24602 14.2464 8.50048 14.2463C9.96508 14.2506 11.3907 13.7744 12.5586 12.8907C13.7008 12.0274 14.5415 10.8258 14.9611 9.45696C15.0005 9.32697 15.0039 9.18871 14.9709 9.05695C14.9379 8.92519 14.8697 8.80487 14.7736 8.70884ZM11.6561 11.6926C10.6452 12.4536 9.39338 12.8239 8.1311 12.7354C6.86883 12.6468 5.68101 12.1053 4.78625 11.2106C3.8915 10.3158 3.35001 9.12799 3.26144 7.86572C3.17287 6.60344 3.54319 5.35165 4.30423 4.34071C4.70469 3.811 5.20098 3.36113 5.76736 3.01446C5.75611 3.17446 5.75048 3.33509 5.75048 3.49634C5.75247 5.28594 6.46426 7.00167 7.7297 8.26711C8.99514 9.53255 10.7109 10.2444 12.5005 10.2463C12.6617 10.2463 12.8224 10.2407 12.9824 10.2295C12.6359 10.796 12.186 11.2923 11.6561 11.6926Z" fill="#C0C0C0"/>
</svg>
