<svg width="16" height="16" viewBox="0 0 16 16" fill="none" xmlns="http://www.w3.org/2000/svg">
<path d="M7.25 13.75V14C7.25 14.1989 7.32902 14.3897 7.46967 14.5303C7.61032 14.671 7.80109 14.75 8 14.75C8.19891 14.75 8.38968 14.671 8.53033 14.5303C8.67098 14.3897 8.75 14.1989 8.75 14V13.75C8.75 13.5511 8.67098 13.3603 8.53033 13.2197C8.38968 13.079 8.19891 13 8 13C7.80109 13 7.61032 13.079 7.46967 13.2197C7.32902 13.3603 7.25 13.5511 7.25 13.75ZM12.25 8C12.25 7.15943 12.0007 6.33774 11.5337 5.63883C11.0667 4.93992 10.403 4.39518 9.6264 4.07351C8.84982 3.75184 7.99529 3.66768 7.17087 3.83166C6.34645 3.99565 5.58917 4.40042 4.9948 4.9948C4.40042 5.58917 3.99565 6.34645 3.83166 7.17087C3.66768 7.99529 3.75184 8.84982 4.07351 9.6264C4.39518 10.403 4.93992 11.0667 5.63883 11.5337C6.33774 12.0007 7.15943 12.25 8 12.25C9.12681 12.2488 10.2071 11.8007 11.0039 11.0039C11.8007 10.2071 12.2488 9.12681 12.25 8ZM10.75 8C10.75 8.5439 10.5887 9.07558 10.2865 9.52782C9.98437 9.98005 9.55488 10.3325 9.05238 10.5407C8.54988 10.7488 7.99695 10.8033 7.4635 10.6972C6.93005 10.5911 6.44005 10.3291 6.05546 9.94454C5.67086 9.55995 5.40895 9.06995 5.30284 8.5365C5.19673 8.00305 5.25119 7.45012 5.45933 6.94762C5.66747 6.44512 6.01995 6.01563 6.47218 5.71346C6.92442 5.41129 7.4561 5.25 8 5.25C8.72909 5.25083 9.42808 5.54082 9.94363 6.05637C10.4592 6.57192 10.7492 7.27091 10.75 8ZM3.21937 11.7194C3.28914 11.6496 3.37196 11.5943 3.46311 11.5565C3.55427 11.5188 3.65196 11.4993 3.75062 11.4993C3.84929 11.4993 3.94698 11.5188 4.03814 11.5565C4.12929 11.5943 4.21211 11.6496 4.28188 11.7194C4.35164 11.7891 4.40698 11.872 4.44474 11.9631C4.48249 12.0543 4.50193 12.152 4.50193 12.2506C4.50193 12.3493 4.48249 12.447 4.44474 12.5381C4.40698 12.6293 4.35164 12.7121 4.28188 12.7819L4.03188 13.0319C3.89098 13.1728 3.69988 13.2519 3.50062 13.2519C3.30137 13.2519 3.11027 13.1728 2.96937 13.0319C2.82848 12.891 2.74932 12.6999 2.74932 12.5006C2.74932 12.3014 2.82848 12.1103 2.96937 11.9694L3.21937 11.7194ZM3.21937 4.28187L2.96937 4.03187C2.89961 3.96211 2.84427 3.87929 2.80651 3.78814C2.76876 3.69698 2.74932 3.59929 2.74932 3.50062C2.74932 3.40196 2.76876 3.30427 2.80651 3.21311C2.84427 3.12196 2.89961 3.03914 2.96937 2.96937C3.11027 2.82848 3.30137 2.74932 3.50062 2.74932C3.59929 2.74932 3.69698 2.76876 3.78814 2.80651C3.87929 2.84427 3.96211 2.89961 4.03188 2.96937L4.28188 3.21937C4.42277 3.36027 4.50193 3.55137 4.50193 3.75062C4.50193 3.94988 4.42277 4.14098 4.28188 4.28187C4.14098 4.42277 3.94988 4.50193 3.75062 4.50193C3.55137 4.50193 3.36027 4.42277 3.21937 4.28187ZM12.25 11.5C12.3485 11.4999 12.4461 11.5193 12.5371 11.5569C12.6282 11.5945 12.7109 11.6497 12.7806 11.7194L13.0306 11.9694C13.1715 12.1103 13.2507 12.3014 13.2507 12.5006C13.2507 12.6999 13.1715 12.891 13.0306 13.0319C12.8897 13.1728 12.6986 13.2519 12.4994 13.2519C12.3001 13.2519 12.109 13.1728 11.9681 13.0319L11.7181 12.7819C11.6126 12.677 11.5407 12.5431 11.5115 12.3972C11.4823 12.2513 11.4971 12.1 11.5542 11.9626C11.6112 11.8251 11.7078 11.7078 11.8317 11.6254C11.9556 11.543 12.1012 11.4994 12.25 11.5ZM12.7806 4.28063C12.6397 4.42152 12.4486 4.50068 12.2494 4.50068C12.0501 4.50068 11.859 4.42152 11.7181 4.28063C11.5772 4.13973 11.4981 3.94863 11.4981 3.74938C11.4981 3.55012 11.5772 3.35902 11.7181 3.21813L11.9681 2.96813C12.109 2.82723 12.3001 2.74807 12.4994 2.74807C12.6986 2.74807 12.8897 2.82723 13.0306 2.96813C13.1715 3.10902 13.2507 3.30012 13.2507 3.49938C13.2507 3.69863 13.1715 3.88973 13.0306 4.03063L12.7806 4.28063ZM3 8C3 8.19891 2.92098 8.38968 2.78033 8.53033C2.63968 8.67098 2.44891 8.75 2.25 8.75H2C1.80109 8.75 1.61032 8.67098 1.46967 8.53033C1.32902 8.38968 1.25 8.19891 1.25 8C1.25 7.80109 1.32902 7.61032 1.46967 7.46967C1.61032 7.32902 1.80109 7.25 2 7.25H2.25C2.44891 7.25 2.63968 7.32902 2.78033 7.46967C2.92098 7.61032 3 7.80109 3 8ZM8 3C7.80109 3 7.61032 2.92098 7.46967 2.78033C7.32902 2.63968 7.25 2.44891 7.25 2.25V2C7.25 1.80109 7.32902 1.61032 7.46967 1.46967C7.61032 1.32902 7.80109 1.25 8 1.25C8.19891 1.25 8.38968 1.32902 8.53033 1.46967C8.67098 1.61032 8.75 1.80109 8.75 2V2.25C8.75 2.44891 8.67098 2.63968 8.53033 2.78033C8.38968 2.92098 8.19891 3 8 3ZM14 8.75H13.75C13.5511 8.75 13.3603 8.67098 13.2197 8.53033C13.079 8.38968 13 8.19891 13 8C13 7.80109 13.079 7.61032 13.2197 7.46967C13.3603 7.32902 13.5511 7.25 13.75 7.25H14C14.1989 7.25 14.3897 7.32902 14.5303 7.46967C14.671 7.61032 14.75 7.80109 14.75 8C14.75 8.19891 14.671 8.38968 14.5303 8.53033C14.3897 8.67098 14.1989 8.75 14 8.75Z" fill="#C0C0C0"/>
</svg>
